<?xml version="1.0" standalone="no"?>
<!DOCTYPE svg PUBLIC "-//W3C//DTD SVG 20010904//EN"
 "http://www.w3.org/TR/2001/REC-SVG-20010904/DTD/svg10.dtd">
<svg version="1.0" xmlns="http://www.w3.org/2000/svg"
 width="1280.000000pt" height="942.000000pt" viewBox="0 0 1280.000000 942.000000"
 preserveAspectRatio="xMidYMid meet">
<g transform="translate(0.000000,942.000000) scale(0.100000,-0.100000)"
fill="#000000" stroke="none">
<path d="M2749 9415 c-3 -2 -47 -9 -99 -15 -463 -55 -886 -267 -1245 -625
-189 -188 -323 -373 -506 -696 -86 -151 -117 -197 -179 -260 -114 -118 -168
-128 -435 -84 -216 36 -245 34 -270 -16 -18 -33 -19 -61 -5 -103 5 -17 18 -60
29 -96 35 -120 141 -410 172 -472 17 -34 91 -150 163 -257 73 -108 169 -254
213 -326 383 -616 1104 -1331 1703 -1689 147 -88 344 -185 392 -192 24 -4 42
1 68 18 35 23 199 233 200 255 0 7 -28 14 -75 18 -41 4 -79 13 -84 19 -5 6
-11 34 -13 61 -3 44 -6 50 -26 53 -13 2 -41 -3 -62 -12 -43 -17 -67 -13 -74
12 -4 14 -26 131 -26 138 0 1 -7 9 -15 18 -12 12 -30 14 -79 9 -75 -7 -80 -1
-92 88 -11 88 -16 93 -89 85 -80 -8 -91 2 -100 90 -8 70 -33 111 -62 100 -8
-3 -31 -9 -52 -12 -50 -8 -61 7 -72 103 -6 42 -15 83 -21 91 -8 9 -31 12 -72
10 -34 -1 -66 1 -72 5 -6 4 -13 44 -16 92 -2 47 -10 91 -16 97 -7 7 -47 14
-90 18 l-77 5 4 55 c8 114 7 125 -9 120 -8 -2 -42 -5 -75 -5 l-60 0 -5 110 -6
110 -76 150 c-118 230 -143 321 -159 585 -25 393 38 642 238 945 327 494 972
837 1460 775 298 -37 508 -171 698 -443 78 -114 156 -201 215 -242 32 -22 42
-36 46 -66 16 -101 49 -99 417 25 347 117 413 130 607 123 167 -5 277 -30 427
-94 174 -76 366 -227 484 -383 63 -82 176 -312 222 -450 108 -326 126 -662 51
-970 -83 -339 -278 -655 -527 -856 -298 -239 -691 -377 -1266 -445 -199 -23
-248 -36 -326 -87 -139 -90 -240 -259 -275 -458 -18 -99 -8 -298 19 -390 11
-39 29 -126 41 -195 41 -245 52 -303 72 -368 69 -228 225 -348 473 -367 92 -7
241 12 405 51 123 30 120 32 139 -75 13 -69 12 -71 -11 -89 l-23 -20 48 -48
c26 -27 47 -56 47 -64 0 -10 -19 -19 -62 -28 -176 -35 -345 -175 -418 -345
-23 -54 -317 -1056 -336 -1146 -27 -126 -11 -269 42 -371 25 -48 28 -66 30
-164 2 -113 15 -170 62 -260 52 -103 164 -205 283 -260 59 -27 121 -42 801
-199 251 -58 472 -106 490 -106 56 0 189 38 265 75 40 20 96 57 125 84 51 47
55 48 133 56 142 13 193 36 710 325 270 150 509 286 531 301 141 96 239 262
251 426 3 39 9 75 12 80 3 5 29 23 57 41 235 149 301 449 148 672 -21 30 -29
50 -21 50 7 0 60 -37 117 -82 297 -231 486 -318 694 -318 264 0 397 102 684
526 45 66 122 168 170 226 48 59 105 138 127 177 22 39 45 71 51 71 6 0 57
-24 115 -54 135 -69 201 -93 444 -160 338 -92 438 -105 503 -66 29 18 32 25
32 66 0 25 -19 125 -42 222 -35 148 -42 194 -43 282 0 91 3 112 24 155 34 69
157 187 277 263 461 295 565 374 795 602 253 251 401 452 534 725 121 247 188
455 219 686 9 63 21 144 26 181 15 98 12 174 -10 348 -30 236 -51 333 -112
515 -98 296 -258 578 -498 883 -32 40 -50 73 -50 90 -1 34 -23 62 -80 99 -25
17 -80 64 -122 106 -102 100 -202 151 -349 177 -87 15 -126 29 -244 85 -659
316 -1232 417 -1762 310 -590 -119 -1114 -501 -1593 -1160 -191 -263 -272
-402 -360 -615 -99 -241 -171 -491 -209 -726 -10 -63 -22 -118 -26 -122 -3 -4
-25 12 -47 36 l-40 43 -54 -41 c-187 -141 -264 -222 -264 -276 0 -98 276 -522
523 -806 44 -50 64 -84 83 -140 62 -182 81 -393 48 -527 -24 -94 -59 -167
-179 -372 -111 -187 -187 -338 -226 -449 -33 -93 -33 -217 0 -279 52 -98 186
-212 464 -391 193 -125 196 -147 22 -142 -115 4 -193 -15 -272 -66 -63 -41
-134 -115 -170 -177 l-29 -50 -95 -6 c-52 -4 -116 -14 -142 -23 -86 -31 -1015
-538 -1080 -590 l-61 -49 -179 44 c-106 26 -182 49 -185 57 -2 8 44 172 104
365 93 301 109 364 112 434 7 148 -53 287 -178 413 -104 105 -218 173 -394
234 -23 8 -17 50 21 144 24 62 25 98 0 89 -29 -10 -44 13 -57 88 -9 53 -10 79
-3 86 6 6 64 19 129 30 428 69 530 104 593 205 17 25 34 73 42 112 17 89 15
297 -4 512 -33 362 13 471 347 819 207 215 303 359 400 597 150 369 212 869
156 1259 -59 404 -142 691 -285 980 -289 588 -756 907 -1470 1005 -44 6 -203
14 -353 17 l-273 6 -47 37 c-75 59 -379 262 -464 308 -154 84 -347 161 -518
207 -171 46 -578 93 -601 70z m7492 -1836 c268 -48 487 -155 703 -344 48 -43
102 -99 120 -124 87 -128 217 -236 439 -364 277 -160 469 -435 528 -757 20
-106 17 -361 -5 -474 -27 -136 -73 -289 -123 -406 -263 -615 -794 -1086 -1365
-1211 -189 -41 -567 -48 -765 -13 -325 56 -863 326 -1048 526 -245 264 -405
568 -464 883 -104 554 28 1094 382 1565 98 129 318 348 452 448 177 131 366
217 580 261 133 27 138 28 306 30 108 1 175 -4 260 -20z m-5077 -4929 c130
-65 237 -201 267 -340 23 -107 9 -181 -95 -520 -54 -173 -102 -319 -107 -324
-5 -6 -69 5 -168 29 -142 33 -170 37 -248 33 -164 -10 -309 -98 -436 -265 -21
-29 -43 -50 -48 -47 -14 8 -10 112 6 183 9 35 74 264 146 510 143 487 165 543
258 643 91 99 177 140 286 135 56 -2 84 -10 139 -37z m2487 -605 c-1 -49 -9
-117 -17 -149 -18 -71 -12 -103 22 -116 39 -15 44 -14 134 38 47 27 106 57
132 67 67 25 77 39 48 70 -12 13 -19 28 -15 34 10 17 22 5 51 -52 58 -112 40
-257 -45 -365 -41 -51 -111 -96 -118 -75 -12 35 -89 139 -149 203 -79 83 -159
142 -261 194 -40 20 -73 39 -73 42 0 29 83 121 145 159 37 23 104 45 129 42
17 -2 19 -10 17 -92z m69 80 c0 -17 -2 -18 -24 -9 -23 9 -20 24 4 24 11 0 20
-7 20 -15z m-505 -437 c48 -137 103 -217 195 -278 65 -44 166 -85 233 -94 41
-6 47 -10 47 -31 0 -77 -101 -234 -199 -308 -75 -56 -892 -512 -963 -537 -29
-10 -70 -21 -90 -25 l-38 -7 1 138 c2 258 -54 431 -185 571 -32 35 -56 69 -53
75 6 18 835 463 905 488 65 22 140 26 147 8z m240 -42 c104 -49 237 -176 205
-196 -15 -9 -81 5 -136 29 -99 44 -216 201 -151 201 7 0 44 -15 82 -34z
m-2422 -410 c54 -13 103 -28 109 -34 16 -16 -38 -109 -100 -174 -70 -74 -128
-110 -227 -143 -70 -24 -92 -27 -175 -23 -101 4 -141 18 -192 66 -16 14 -28
33 -28 42 0 41 106 163 186 216 120 78 250 93 427 50z m534 -132 c81 -19 156
-38 166 -41 17 -4 18 -12 12 -81 -23 -263 102 -566 281 -679 24 -15 43 -32 41
-38 -2 -5 -30 -21 -63 -35 -53 -22 -73 -25 -189 -25 l-130 1 -475 112 c-546
128 -592 145 -704 255 -66 65 -114 143 -99 158 6 6 27 2 54 -10 63 -27 213
-45 322 -38 181 12 344 73 451 168 71 64 110 120 142 206 26 70 33 83 39 83 2
0 70 -16 152 -36z m509 -208 c101 -103 154 -231 154 -372 0 -115 -8 -121 -95
-80 -126 60 -196 209 -182 389 6 87 20 127 44 127 9 0 45 -29 79 -64z"/>
</g>
</svg>
